<svg width="62" height="62" viewBox="0 0 62 62" fill="none" xmlns="http://www.w3.org/2000/svg">
<path d="M28.0938 52.3125C29.6961 52.3125 31 51.0086 31 49.4062V10.6562C31 9.05394 29.6961 7.75 28.0938 7.75C26.4914 7.75 25.1875 9.05394 25.1875 10.6562V49.4062C25.1875 51.0086 26.4914 52.3125 28.0938 52.3125ZM43.5938 48.4375C45.1961 48.4375 46.5 47.1336 46.5 45.5312V14.5312C46.5 12.9289 45.1961 11.625 43.5938 11.625C41.9914 11.625 40.6875 12.9289 40.6875 14.5312V45.5312C40.6875 47.1336 41.9914 48.4375 43.5938 48.4375ZM20.3438 42.625C21.9461 42.625 23.25 41.3211 23.25 39.7188V20.3438C23.25 18.7414 21.9461 17.4375 20.3438 17.4375C18.7414 17.4375 17.4375 18.7414 17.4375 20.3438V39.7188C17.4375 41.3211 18.7414 42.625 20.3438 42.625ZM35.8438 42.625C37.4461 42.625 38.75 41.3211 38.75 39.7188V20.3438C38.75 18.7414 37.4461 17.4375 35.8438 17.4375C34.2414 17.4375 32.9375 18.7414 32.9375 20.3438V39.7188C32.9375 41.3211 34.2414 42.625 35.8438 42.625ZM51.3438 40.6875C52.9461 40.6875 54.25 39.3836 54.25 37.7812V22.2812C54.25 20.6789 52.9461 19.375 51.3438 19.375C49.7414 19.375 48.4375 20.6789 48.4375 22.2812V37.7812C48.4375 39.3836 49.7414 40.6875 51.3438 40.6875ZM4.84375 38.75C6.44606 38.75 7.75 37.4461 7.75 35.8438V24.2188C7.75 22.6164 6.44606 21.3125 4.84375 21.3125C3.24144 21.3125 1.9375 22.6164 1.9375 24.2188V35.8438C1.9375 37.4461 3.24144 38.75 4.84375 38.75ZM12.5938 36.8125C14.1961 36.8125 15.5 35.5086 15.5 33.9062V26.1562C15.5 24.5539 14.1961 23.25 12.5938 23.25C10.9914 23.25 9.6875 24.5539 9.6875 26.1562V33.9062C9.6875 35.5086 10.9914 36.8125 12.5938 36.8125ZM59.0938 34.875C60.6961 34.875 62 33.5711 62 31.9688V28.0938C62 26.4914 60.6961 25.1875 59.0938 25.1875C57.4914 25.1875 56.1875 26.4914 56.1875 28.0938V31.9688C56.1875 33.5711 57.4914 34.875 59.0938 34.875Z" fill="#2491F1"/>
</svg>
